<?xml version="1.0" encoding="UTF-8" standalone="no"?>
<!DOCTYPE svg PUBLIC "-//W3C//DTD SVG 1.1//EN" "http://www.w3.org/Graphics/SVG/1.1/DTD/svg11.dtd">
<svg width="100%" height="100%" viewBox="0 0 512 512" version="1.1" xmlns="http://www.w3.org/2000/svg" xmlns:xlink="http://www.w3.org/1999/xlink" xml:space="preserve" xmlns:serif="http://www.serif.com/" style="fill-rule:evenodd;clip-rule:evenodd;stroke-linejoin:round;stroke-miterlimit:2;fill:#274C77;">
    <g transform="matrix(1,0,0,1,0,-1678)">
        <g id="Artboard1" transform="matrix(0.256,0,0,0.256,0,1678)">
            <rect x="0" y="0" width="2000" height="2000" style="fill:none;"/>
            <clipPath id="_clip1">
                <rect x="0" y="0" width="2000" height="2000"/>
            </clipPath>
            <g clip-path="url(#_clip1)">
                <g transform="matrix(4.75059,0,0,4.75059,-13734,-370.546)">
                    <path d="M3312,141.15L3312,435.85C3312,470.703 3283.7,499 3248.85,499L2954.15,499C2919.3,499 2891,470.703 2891,435.85L2891,141.15C2891,106.297 2919.3,78 2954.15,78L3248.85,78C3283.7,78 3312,106.297 3312,141.15ZM3251.63,364.963C3257.97,299.415 3241.01,242.482 3206.7,192.013C3206.62,191.841 3206.48,191.718 3206.31,191.652C3186.94,182.765 3166.17,176.22 3144.46,172.466C3144.06,172.392 3143.67,172.573 3143.47,172.934C3140.79,177.69 3137.83,183.882 3135.76,188.753C3112.41,185.262 3089.17,185.262 3066.3,188.753C3064.22,183.776 3061.16,177.69 3058.47,172.934C3058.28,172.589 3057.88,172.409 3057.48,172.466C3035.78,176.203 3015.01,182.749 2995.63,191.652C2995.46,191.718 2995.32,191.841 2995.22,191.997C2955.83,250.851 2945.04,308.252 2950.33,364.947C2950.36,365.226 2950.51,365.489 2950.73,365.661C2976.72,384.749 3001.89,396.337 3026.61,404.016C3027,404.139 3027.42,403.992 3027.67,403.663C3033.51,395.688 3038.73,387.27 3043.2,378.416C3043.46,377.899 3043.2,377.283 3042.66,377.078C3034.4,373.948 3026.53,370.121 3018.96,365.785C3018.37,365.431 3018.32,364.577 3018.87,364.167C3020.46,362.976 3022.05,361.727 3023.58,360.479C3023.85,360.249 3024.23,360.2 3024.56,360.348C3074.28,383.048 3128.12,383.048 3177.26,360.348C3177.59,360.183 3177.97,360.233 3178.26,360.463C3179.78,361.719 3181.37,362.976 3182.97,364.167C3183.53,364.577 3183.49,365.431 3182.89,365.785C3175.33,370.203 3167.45,373.948 3159.18,377.069C3158.64,377.275 3158.4,377.899 3158.66,378.416C3163.23,387.253 3168.44,395.672 3174.18,403.655C3174.41,403.992 3174.84,404.139 3175.24,404.016C3200.07,396.337 3225.25,384.749 3251.23,365.661C3251.46,365.489 3251.61,365.243 3251.63,364.963ZM3077.93,299.801C3077.93,316.687 3065.83,330.428 3050.62,330.428C3035.65,330.428 3023.31,316.687 3023.31,299.801C3023.31,282.923 3035.41,269.175 3050.62,269.175C3065.95,269.175 3078.17,283.047 3077.93,299.801ZM3178.89,299.801C3178.89,316.687 3166.92,330.428 3151.58,330.428C3136.61,330.428 3124.28,316.687 3124.28,299.801C3124.28,282.923 3136.37,269.175 3151.58,269.175C3166.92,269.175 3179.13,283.047 3178.89,299.801Z"/>
                </g>
            </g>
        </g>
    </g>
</svg>
