<?xml version="1.0" encoding="UTF-8" standalone="no"?>
<!DOCTYPE svg PUBLIC "-//W3C//DTD SVG 1.1//EN" "http://www.w3.org/Graphics/SVG/1.1/DTD/svg11.dtd">
<svg width="100%" height="100%" viewBox="0 0 512 512" version="1.1" xmlns="http://www.w3.org/2000/svg" xmlns:xlink="http://www.w3.org/1999/xlink" xml:space="preserve" xmlns:serif="http://www.serif.com/" style="fill-rule:evenodd;clip-rule:evenodd;stroke-linejoin:round;stroke-miterlimit:2;fill:#274C77;">
    <g id="Artboard1" transform="matrix(0.256,0,0,0.256,0,0)">
        <rect x="0" y="0" width="2000" height="2000" style="fill:none;"/>
        <clipPath id="_clip1">
            <rect x="0" y="0" width="2000" height="2000"/>
        </clipPath>
        <g clip-path="url(#_clip1)">
            <g transform="matrix(4.75059,0,0,4.75059,-13734,-370.546)">
                <path d="M3312,141.15L3312,435.85C3312,470.703 3283.7,499 3248.85,499L2954.15,499C2919.3,499 2891,470.703 2891,435.85L2891,141.15C2891,106.297 2919.3,78 2954.15,78L3248.85,78C3283.7,78 3312,106.297 3312,141.15ZM3238,350.992L3238,226.008C3238,185.203 3204.8,152.004 3163.99,152.004L3039.01,152.004C2998.2,152.004 2965,185.203 2965,226.008L2965,350.992C2965,391.797 2998.2,424.996 3039.01,424.996L3163.99,424.996C3204.8,424.996 3238,391.797 3238,350.992ZM3163.99,176.672C3191.2,176.672 3213.33,198.802 3213.33,226.008L3213.33,350.992C3213.33,378.198 3191.2,400.328 3163.99,400.328L3039.01,400.328C3011.8,400.328 2989.67,378.198 2989.67,350.992L2989.67,226.008C2989.67,198.802 3011.8,176.672 3039.01,176.672L3163.99,176.672ZM3101.5,350.17C3135.51,350.17 3163.17,322.505 3163.17,288.5C3163.17,254.495 3135.51,226.83 3101.5,226.83C3067.49,226.83 3039.83,254.495 3039.83,288.5C3039.83,322.505 3067.49,350.17 3101.5,350.17ZM3138.5,288.5C3138.5,308.935 3121.93,325.502 3101.5,325.502C3081.07,325.502 3064.5,308.935 3064.5,288.5C3064.5,268.065 3081.07,251.498 3101.5,251.498C3121.93,251.498 3138.5,268.065 3138.5,288.5ZM3172.22,230.119C3179.03,230.119 3184.55,224.598 3184.55,217.785C3184.55,210.973 3179.03,205.451 3172.22,205.451C3165.4,205.451 3159.88,210.973 3159.88,217.785C3159.88,224.598 3165.4,230.119 3172.22,230.119Z"/>
            </g>
        </g>
    </g>
</svg>
