<?xml version="1.0" encoding="UTF-8" standalone="no"?>
<!DOCTYPE svg PUBLIC "-//W3C//DTD SVG 1.1//EN" "http://www.w3.org/Graphics/SVG/1.1/DTD/svg11.dtd">
<svg width="100%" height="100%" viewBox="0 0 512 512" version="1.1" xmlns="http://www.w3.org/2000/svg" xmlns:xlink="http://www.w3.org/1999/xlink" xml:space="preserve" xmlns:serif="http://www.serif.com/" style="fill-rule:evenodd;clip-rule:evenodd;stroke-linejoin:round;stroke-miterlimit:2;fill:#274C77;">
    <g transform="matrix(1,0,0,1,-1714,-558)">
        <g id="Artboard1" transform="matrix(0.256,0,0,0.256,1714,558)">
            <rect x="0" y="0" width="2000" height="2000" style="fill:none;"/>
            <clipPath id="_clip1">
                <rect x="0" y="0" width="2000" height="2000"/>
            </clipPath>
            <g clip-path="url(#_clip1)">
                <g transform="matrix(4.75059,0,0,4.75059,-13734,-370.546)">
                    <path d="M3312,141.15L3312,435.85C3312,470.703 3283.7,499 3248.85,499L2954.15,499C2919.3,499 2891,470.703 2891,435.85L2891,141.15C2891,106.297 2919.3,78 2954.15,78L3248.85,78C3283.7,78 3312,106.297 3312,141.15ZM3006.73,228.699C3026.41,228.699 3042.61,212.502 3042.61,192.818C3042.61,173.135 3026.41,156.938 3006.73,156.938C2987.04,156.938 2970.85,173.135 2970.85,192.818C2970.85,212.502 2987.04,228.699 3006.73,228.699ZM3034.52,411.164L3034.52,252.619C3034.52,247.747 3030.52,243.734 3025.65,243.721L2987.83,243.721C2982.95,243.721 2978.93,247.738 2978.93,252.619L2978.93,411.164C2978.93,411.172 2978.93,411.18 2978.93,411.188C2978.93,416.056 2982.94,420.063 2987.81,420.063C2987.81,420.063 2987.82,420.063 2987.83,420.062L3025.65,420.063C3030.52,420.063 3034.52,416.056 3034.52,411.188C3034.52,411.18 3034.52,411.172 3034.52,411.164ZM3232.2,411.786L3232.15,335.145C3232.15,301.8 3232.58,241.09 3167.57,241.09C3138.22,241.09 3124.46,251.806 3115.18,265.752L3115.18,251.926C3115.18,247.438 3111.49,243.745 3107,243.745L3067.72,243.745C3063.25,243.745 3059.57,247.427 3059.57,251.902C3059.57,251.91 3059.57,251.918 3059.57,251.926L3059.57,411.882C3059.57,411.89 3059.57,411.898 3059.57,411.906C3059.57,416.38 3063.25,420.063 3067.72,420.063L3107,420.062C3111.44,419.998 3115.06,416.325 3115.06,411.882L3115.06,326.103C3116.07,314.573 3121.16,288.907 3146.16,288.907C3178.43,288.907 3175.18,326.414 3175.18,337.513L3175.18,411.786C3175.18,411.794 3175.18,411.802 3175.18,411.81C3175.18,416.285 3178.86,419.967 3183.33,419.967C3183.34,419.967 3183.35,419.967 3183.36,419.967L3224.02,419.967C3224.03,419.967 3224.04,419.967 3224.05,419.967C3228.52,419.967 3232.2,416.285 3232.2,411.81C3232.2,411.802 3232.2,411.794 3232.2,411.786Z"/>
                </g>
            </g>
        </g>
    </g>
</svg>
