<?xml version="1.0" encoding="UTF-8" standalone="no"?>
<!DOCTYPE svg PUBLIC "-//W3C//DTD SVG 1.1//EN" "http://www.w3.org/Graphics/SVG/1.1/DTD/svg11.dtd">
<svg width="100%" height="100%" viewBox="0 0 512 512" version="1.1" xmlns="http://www.w3.org/2000/svg" xmlns:xlink="http://www.w3.org/1999/xlink" xml:space="preserve" xmlns:serif="http://www.serif.com/" style="fill-rule:evenodd;clip-rule:evenodd;stroke-linejoin:round;stroke-miterlimit:2;fill:#274C77;">
    <g transform="matrix(1,0,0,1,-1148,-2248)">
        <g id="Artboard1" transform="matrix(0.256,0,0,0.256,1148,2248)">
            <rect x="0" y="0" width="2000" height="2000" style="fill:none;"/>
            <clipPath id="_clip1">
                <rect x="0" y="0" width="2000" height="2000"/>
            </clipPath>
            <g clip-path="url(#_clip1)">
                <g transform="matrix(4.75059,0,0,4.75059,-13734,-370.546)">
                    <path d="M3312,141.15L3312,435.85C3312,470.703 3283.7,499 3248.85,499L2954.15,499C2919.3,499 2891,470.703 2891,435.85L2891,141.15C2891,106.297 2919.3,78 2954.15,78L3248.85,78C3283.7,78 3312,106.297 3312,141.15ZM3101.5,138.049C3059.72,138.049 3025.34,172.431 3025.34,214.214C3025.34,255.997 3059.72,290.379 3101.5,290.379C3143.28,290.379 3177.66,255.997 3177.66,214.214C3177.66,172.431 3143.28,138.049 3101.5,138.049ZM3101.5,176.766C3102.12,176.735 3102.75,176.719 3103.38,176.719C3123.95,176.719 3140.87,193.645 3140.87,214.214C3140.87,234.783 3123.95,251.709 3103.38,251.709C3102.75,251.709 3102.12,251.694 3101.5,251.662C3100.88,251.694 3100.25,251.709 3099.62,251.709C3079.05,251.709 3062.13,234.783 3062.13,214.214C3062.13,193.645 3079.05,176.719 3099.62,176.719C3100.25,176.719 3100.88,176.735 3101.5,176.766ZM3157.23,296.206C3157.23,296.206 3135.89,313.121 3101.5,313.121C3067.11,313.121 3045.77,296.206 3045.77,296.206C3029.99,283.801 3018.05,291.037 3013.73,299.589C3006.3,314.719 3014.76,321.86 3033.84,334.359C3050.1,344.79 3072.56,348.643 3087.03,350.146L3074.91,362.269C3063.07,374.016 3051.6,385.574 3041.83,395.348L3030.08,407.094C3013.54,423.633 3040.14,450.134 3056.77,433.971L3101.59,388.957C3118.7,406.06 3135.14,422.506 3146.42,433.971C3162.96,450.134 3189.65,423.915 3173.3,407.094L3128.47,362.269L3116.25,350.146C3130.82,348.643 3153,344.602 3169.07,334.359C3188.24,321.86 3196.6,314.625 3189.27,299.589C3184.95,291.037 3173.01,283.801 3157.23,296.206Z"/>
                </g>
            </g>
        </g>
    </g>
</svg>
