<?xml version="1.0" encoding="UTF-8" standalone="no"?>
<!DOCTYPE svg PUBLIC "-//W3C//DTD SVG 1.1//EN" "http://www.w3.org/Graphics/SVG/1.1/DTD/svg11.dtd">
<svg width="100%" height="100%" viewBox="0 0 512 512" version="1.1" xmlns="http://www.w3.org/2000/svg" xmlns:xlink="http://www.w3.org/1999/xlink" xml:space="preserve" xmlns:serif="http://www.serif.com/" style="fill-rule:evenodd;clip-rule:evenodd;stroke-linejoin:round;stroke-miterlimit:2;fill:#274C77;">
    <g transform="matrix(1,0,0,1,0,-2851)">
        <g id="Artboard1" transform="matrix(0.256,0,0,0.256,0,2851)">
            <rect x="0" y="0" width="2000" height="2000" style="fill:none;"/>
            <clipPath id="_clip1">
                <rect x="0" y="0" width="2000" height="2000"/>
            </clipPath>
            <g clip-path="url(#_clip1)">
                <g transform="matrix(4.75059,0,0,4.75059,-13734,-370.546)">
                    <path d="M3312,141.15L3312,435.85C3312,470.703 3283.7,499 3248.85,499L2954.15,499C2919.3,499 2891,470.703 2891,435.85L2891,141.15C2891,106.297 2919.3,78 2954.15,78L3248.85,78C3283.7,78 3312,106.297 3312,141.15ZM3228.95,216.963C3228.95,206.298 3220.29,197.64 3209.63,197.64L2993.37,197.64C2982.71,197.64 2974.05,206.298 2974.05,216.963C2974.05,227.628 2982.71,236.286 2993.37,236.286L3209.63,236.286C3220.29,236.286 3228.95,227.628 3228.95,216.963ZM3228.95,288.5C3228.95,277.835 3220.29,269.177 3209.63,269.177L2993.37,269.177C2982.71,269.177 2974.05,277.835 2974.05,288.5C2974.05,299.165 2982.71,307.823 2993.37,307.823L3209.63,307.823C3220.29,307.823 3228.95,299.165 3228.95,288.5ZM3228.95,360.037C3228.95,349.372 3220.29,340.714 3209.63,340.714L2993.37,340.714C2982.71,340.714 2974.05,349.372 2974.05,360.037C2974.05,370.702 2982.71,379.36 2993.37,379.36L3209.63,379.36C3220.29,379.36 3228.95,370.702 3228.95,360.037Z"/>
                </g>
            </g>
        </g>
    </g>
</svg>
