<?xml version="1.0" encoding="UTF-8" standalone="no"?>
<!DOCTYPE svg PUBLIC "-//W3C//DTD SVG 1.1//EN" "http://www.w3.org/Graphics/SVG/1.1/DTD/svg11.dtd">
<svg width="100%" height="100%" viewBox="0 0 512 512" version="1.1" xmlns="http://www.w3.org/2000/svg" xmlns:xlink="http://www.w3.org/1999/xlink" xml:space="preserve" xmlns:serif="http://www.serif.com/" style="fill-rule:evenodd;clip-rule:evenodd;stroke-linejoin:round;stroke-miterlimit:2;fill:#274C77;">
    <g transform="matrix(1,0,0,1,-582,-558)">
        <g id="Artboard1" transform="matrix(0.256,0,0,0.256,582,558)">
            <rect x="0" y="0" width="2000" height="2000" style="fill:none;"/>
            <clipPath id="_clip1">
                <rect x="0" y="0" width="2000" height="2000"/>
            </clipPath>
            <g clip-path="url(#_clip1)">
                <g transform="matrix(4.75059,0,0,4.75059,-13734,-370.546)">
                    <path d="M3312,141.15L3312,435.85C3312,470.703 3283.7,499 3248.85,499L2954.15,499C2919.3,499 2891,470.703 2891,435.85L2891,141.15C2891,106.297 2919.3,78 2954.15,78L3248.85,78C3283.7,78 3312,106.297 3312,141.15ZM3109.57,215.867L3109.57,232.01C3136.12,232.038 3157.96,253.877 3157.99,280.428L3174.13,280.428C3174.09,245.027 3144.97,215.908 3109.57,215.867ZM3198.34,280.428L3214.48,280.428C3214.41,222.904 3167.1,175.589 3109.57,175.521L3109.57,191.664C3158.24,191.719 3198.28,231.755 3198.34,280.428ZM3161.86,401.479C3167.89,401.479 3214.48,363.82 3214.5,355.497C3214.5,352.609 3212.55,350.413 3209.61,347.902C3202.55,341.977 3161.2,315.728 3154.31,316.983C3151.07,317.561 3148.61,320.31 3142,328.193C3138.94,332.078 3135.59,335.713 3131.95,339.065C3125.31,337.459 3118.88,335.075 3112.8,331.959C3088.93,320.367 3069.64,301.085 3058.04,277.227C3054.93,271.144 3052.54,264.714 3050.93,258.071C3054.29,254.44 3057.92,251.082 3061.81,248.028C3069.69,241.413 3072.44,238.952 3073.02,235.714C3074.22,228.822 3048.02,187.471 3042.1,180.416C3039.64,177.479 3037.39,175.521 3034.5,175.521C3026.18,175.521 2988.52,222.106 2988.52,228.144C2988.52,228.634 2989.35,277.127 3050.57,339.429C3112.9,400.651 3161.37,401.479 3161.86,401.479Z"/>
                </g>
            </g>
        </g>
    </g>
</svg>
