<?xml version="1.0" encoding="UTF-8" standalone="no"?>
<!DOCTYPE svg PUBLIC "-//W3C//DTD SVG 1.1//EN" "http://www.w3.org/Graphics/SVG/1.1/DTD/svg11.dtd">
<svg width="100%" height="100%" viewBox="0 0 512 512" version="1.1" xmlns="http://www.w3.org/2000/svg" xmlns:xlink="http://www.w3.org/1999/xlink" xml:space="preserve" xmlns:serif="http://www.serif.com/" style="fill-rule:evenodd;clip-rule:evenodd;stroke-linejoin:round;stroke-miterlimit:2;fill:#274C77;">
    <g transform="matrix(1,0,0,1,-582,-1143)">
        <g id="Artboard1" transform="matrix(0.256,0,0,0.256,582,1143)">
            <rect x="0" y="0" width="2000" height="2000" style="fill:none;"/>
            <clipPath id="_clip1">
                <rect x="0" y="0" width="2000" height="2000"/>
            </clipPath>
            <g clip-path="url(#_clip1)">
                <g transform="matrix(4.40529,0,0,4.40529,-2819.38,-537.445)">
                    <path d="M1094,190.1L1094,507.9C1094,545.485 1063.49,576 1025.9,576L708.1,576C670.515,576 640,545.485 640,507.9L640,190.1C640,152.515 670.515,122 708.1,122L1025.9,122C1063.49,122 1094,152.515 1094,190.1ZM776.2,539.222C775.221,544.901 786.708,553.285 796.468,540.033C806.399,523.413 819.168,499.497 824.235,479.939C827.275,468.285 839.74,420.757 839.74,420.757C847.847,436.262 871.56,449.334 896.794,449.334C971.886,449.334 1025.9,380.322 1025.9,294.589C1025.9,212.403 958.813,150.89 872.472,150.89C765.053,150.89 708.1,222.942 708.1,301.48C708.1,337.962 727.557,383.362 758.567,397.854C763.33,400.083 765.762,399.07 766.877,394.51C767.181,393.192 767.992,389.848 769.005,385.795C770.626,379.41 772.653,371.1 773.768,366.337C774.376,363.804 774.072,361.676 772.045,359.244C761.81,346.779 753.5,323.876 753.5,302.494C753.5,247.568 795.049,194.466 865.885,194.466C926.993,194.466 969.859,236.116 969.859,295.704C969.859,362.993 935.911,409.609 891.625,409.609C867.203,409.609 848.962,389.443 854.738,364.615C857.271,353.974 860.616,342.928 863.96,332.186C869.837,313.236 875.31,295.4 875.31,281.719C875.31,228.009 798.799,235.407 798.799,307.054C798.799,329.045 806.196,344.043 806.196,344.043C800.724,367.25 796.063,386.504 792.11,402.718C773.058,480.952 770.728,490.478 776.2,539.222Z"/>
                </g>
            </g>
        </g>
    </g>
</svg>
