<?xml version="1.0" encoding="UTF-8" standalone="no"?>
<!DOCTYPE svg PUBLIC "-//W3C//DTD SVG 1.1//EN" "http://www.w3.org/Graphics/SVG/1.1/DTD/svg11.dtd">
<svg width="100%" height="100%" viewBox="0 0 512 512" version="1.1" xmlns="http://www.w3.org/2000/svg" xmlns:xlink="http://www.w3.org/1999/xlink" xml:space="preserve" xmlns:serif="http://www.serif.com/" style="fill-rule:evenodd;clip-rule:evenodd;stroke-linejoin:round;stroke-miterlimit:2;fill:#274C77;">
    <g transform="matrix(1,0,0,1,-1714,-1120)">
        <g id="Artboard1" transform="matrix(0.256,0,0,0.256,1714,1120)">
            <rect x="0" y="0" width="2000" height="2000" style="fill:none;"/>
            <clipPath id="_clip1">
                <rect x="0" y="0" width="2000" height="2000"/>
            </clipPath>
            <g clip-path="url(#_clip1)">
                <g transform="matrix(4.75059,0,0,4.75059,-13734,-370.546)">
                    <path d="M3312,141.15L3312,435.85C3312,470.703 3283.7,499 3248.85,499L2954.15,499C2919.3,499 2891,470.703 2891,435.85L2891,141.15C2891,106.297 2919.3,78 2954.15,78L3248.85,78C3283.7,78 3312,106.297 3312,141.15ZM3178.46,204.3C3197.82,204.3 3213.52,188.606 3213.52,169.248C3213.52,149.89 3197.82,134.196 3178.46,134.196C3161.55,134.196 3147.36,146.225 3144.07,162.2C3115.69,165.207 3093.51,189.264 3093.51,218.49L3093.51,218.678C3062.69,219.994 3034.5,228.733 3012.13,242.641C3003.86,236.251 2993.43,232.398 2982.06,232.398C2954.9,232.398 2932.91,254.388 2932.91,281.546C2932.91,301.28 2944.47,318.196 2961.2,326.089C2962.8,383.131 3025.01,429.084 3101.5,429.084C3177.99,429.084 3240.2,383.131 3241.8,325.995C3258.43,318.102 3269.9,301.186 3269.9,281.546C3269.9,254.388 3247.91,232.398 3220.75,232.398C3209.47,232.398 3199.14,236.157 3190.78,242.547C3168.22,228.545 3139.75,219.806 3108.55,218.678L3108.55,218.584C3108.55,197.722 3124.05,180.337 3144.16,177.518C3147.83,193.023 3161.74,204.488 3178.28,204.488L3178.46,204.3ZM3153.47,359.168C3145.01,379.372 3124.99,393.656 3101.69,393.656C3078.38,393.656 3058.37,379.466 3049.91,359.168C3048.88,356.725 3050.57,354.093 3053.1,353.811C3068.23,352.308 3084.59,351.462 3101.69,351.462C3118.79,351.462 3135.14,352.308 3150.27,353.811C3152.81,354.093 3154.5,356.725 3153.47,359.168ZM3193.03,312.557C3193.88,330.412 3181.75,337.648 3168.03,337.648C3154.31,337.648 3143.98,331.164 3143.13,313.309C3142.28,295.454 3152.81,280.982 3166.62,280.982C3180.44,280.982 3192.28,294.702 3193.03,312.463L3193.03,312.557ZM3036.66,281.076C3050.38,281.076 3060.9,295.548 3060.15,313.403C3059.4,331.258 3049.06,337.742 3035.25,337.742C3021.43,337.742 3009.41,330.506 3010.25,312.651C3011.1,294.796 3022.94,281.17 3036.66,281.17L3036.66,281.076Z"/>
                </g>
            </g>
        </g>
    </g>
</svg>
