<?xml version="1.0" encoding="UTF-8" standalone="no"?>
<!DOCTYPE svg PUBLIC "-//W3C//DTD SVG 1.1//EN" "http://www.w3.org/Graphics/SVG/1.1/DTD/svg11.dtd">
<svg width="100%" height="100%" viewBox="0 0 512 512" version="1.1" xmlns="http://www.w3.org/2000/svg" xmlns:xlink="http://www.w3.org/1999/xlink" xml:space="preserve" xmlns:serif="http://www.serif.com/" style="fill-rule:evenodd;clip-rule:evenodd;stroke-linejoin:round;stroke-miterlimit:2;fill:#274C77;">
    <g transform="matrix(1,0,0,1,-582,-2271)">
        <g id="Artboard1" transform="matrix(0.256,0,0,0.256,582,2271)">
            <rect x="0" y="0" width="2000" height="2000" style="fill:none;"/>
            <clipPath id="_clip1">
                <rect x="0" y="0" width="2000" height="2000"/>
            </clipPath>
            <g clip-path="url(#_clip1)">
                <g transform="matrix(4.40529,0,0,4.40529,-2819.38,-537.445)">
                    <path d="M1094,190.1L1094,507.9C1094,545.485 1063.49,576 1025.9,576L708.1,576C670.515,576 640,545.485 640,507.9L640,190.1C640,152.515 670.515,122 708.1,122L1025.9,122C1063.49,122 1094,152.515 1094,190.1ZM1024.84,172.543C1008.2,172.543 994.687,186.052 994.687,202.691C994.687,219.331 1008.2,232.84 1024.84,232.84C1041.47,232.84 1054.98,219.331 1054.98,202.691C1054.98,186.052 1041.47,172.543 1024.84,172.543ZM932.972,230.313L723.515,230.313L723.515,467.775L783.024,467.775L783.024,390.519L892.694,390.519L944.734,467.775L1011.37,467.775L953.997,390.156C975.15,387.021 984.648,380.539 992.482,369.856C1000.32,359.173 1004.24,342.092 1004.24,319.297L1004.24,301.492C1004.24,287.973 1002.81,277.289 1000.32,269.101C997.818,260.913 993.55,253.791 987.487,247.394C981.084,241.338 973.955,237.073 965.395,234.215C956.836,231.721 946.142,230.292 932.972,230.292L932.972,230.313ZM923.346,338.19L783.024,338.19L783.024,282.663L923.346,282.663C931.542,282.663 937.241,284.092 940.102,286.586C942.962,289.081 944.734,293.709 944.734,300.468L944.734,320.406C944.734,327.528 942.962,332.155 940.102,334.65C937.241,337.145 931.542,338.212 923.346,338.212L923.346,338.19Z"/>
                </g>
            </g>
        </g>
    </g>
</svg>
