<?xml version="1.0" encoding="UTF-8" standalone="no"?>
<!DOCTYPE svg PUBLIC "-//W3C//DTD SVG 1.1//EN" "http://www.w3.org/Graphics/SVG/1.1/DTD/svg11.dtd">
<svg width="100%" height="100%" viewBox="0 0 512 512" version="1.1" xmlns="http://www.w3.org/2000/svg" xmlns:xlink="http://www.w3.org/1999/xlink" xml:space="preserve" xmlns:serif="http://www.serif.com/" style="fill-rule:evenodd;clip-rule:evenodd;stroke-linejoin:round;stroke-miterlimit:2;fill:#274C77;">
    <g transform="matrix(1,0,0,1,-1148,-1120)">
        <g id="Artboard1" transform="matrix(0.256,0,0,0.256,1148,1120)">
            <rect x="0" y="0" width="2000" height="2000" style="fill:none;"/>
            <clipPath id="_clip1">
                <rect x="0" y="0" width="2000" height="2000"/>
            </clipPath>
            <g clip-path="url(#_clip1)">
                <g transform="matrix(4.75059,0,0,4.75059,-13734,-370.546)">
                    <path d="M3312,141.15L3312,435.85C3312,470.703 3283.7,499 3248.85,499L2954.15,499C2919.3,499 2891,470.703 2891,435.85L2891,141.15C2891,106.297 2919.3,78 2954.15,78L3248.85,78C3283.7,78 3312,106.297 3312,141.15ZM3248.19,378.056C3254.02,371.854 3255.43,364.524 3253.08,358.134C3250.92,352.308 3246.88,349.207 3242.27,346.669C3241.43,346.2 3240.58,345.73 3239.92,345.448C3238.61,344.696 3237.2,344.038 3235.79,343.286C3221.41,335.675 3210.23,326.089 3202.43,314.719C3200.22,311.514 3198.3,308.118 3196.7,304.569C3196.04,302.69 3196.04,301.562 3196.51,300.623C3197,299.873 3197.64,299.233 3198.39,298.743C3200.92,297.052 3203.46,295.454 3205.15,294.326C3208.16,292.353 3210.6,290.755 3212.2,289.628C3218.12,285.587 3222.26,281.17 3224.79,276.283C3228.43,269.437 3228.91,261.334 3226.11,254.106C3222.16,243.863 3212.48,237.473 3200.74,237.473C3198.27,237.464 3195.82,237.716 3193.41,238.224C3192.75,238.412 3192.09,238.506 3191.43,238.694C3191.58,231.452 3191.36,224.207 3190.78,216.986C3188.52,191.332 3179.59,177.894 3170.19,167.181C3164.21,160.467 3157.16,154.784 3149.33,150.359C3135.14,142.278 3119.07,138.143 3101.5,138.143C3083.93,138.143 3067.95,142.278 3053.67,150.547C3045.8,154.957 3038.72,160.642 3032.71,167.369C3023.31,178.081 3014.39,191.52 3012.13,217.174C3011.57,224.41 3011.38,231.928 3011.47,238.882C3010.91,238.694 3010.25,238.6 3009.59,238.412C3007.18,237.903 3004.73,237.651 3002.26,237.66C2990.52,237.66 2980.74,244.051 2976.89,254.294C2974.09,261.522 2974.57,269.625 2978.21,276.471C2980.74,281.358 2984.88,285.681 2990.8,289.816C2992.3,290.943 2994.75,292.541 2997.85,294.514C2999.54,295.548 3001.98,297.146 3004.33,298.743C3005.16,299.278 3005.86,299.983 3006.4,300.81C3006.96,301.844 3006.96,302.878 3006.21,304.945C3004.63,308.427 3002.75,311.761 3000.57,314.906C2992.96,325.995 2982.15,335.487 2968.25,343.004C2960.92,346.951 2953.21,349.583 2950.01,358.322C2947.57,364.9 2949.17,372.418 2955.37,378.808C2957.64,381.183 2960.27,383.182 2963.17,384.729C2969.2,388.031 2975.6,390.588 2982.25,392.34C2983.62,392.684 2984.92,393.256 2986.1,394.032C2988.36,396.005 2988.07,399.012 2991.08,403.335C2992.59,405.58 2994.5,407.525 2996.72,409.068C3003.02,413.39 3010.06,413.672 3017.58,413.954C3024.35,414.236 3032.05,414.518 3040.79,417.431C3044.36,418.559 3048.12,420.908 3052.54,423.633C3063.07,430.118 3077.44,438.951 3101.5,438.951C3125.56,438.951 3140.03,430.024 3150.65,423.54C3154.97,420.908 3158.73,418.559 3162.3,417.431C3171.04,414.518 3178.75,414.236 3185.51,413.954C3193.03,413.672 3200.08,413.39 3206.37,409.068C3209,407.22 3211.18,404.812 3212.76,402.02C3214.93,398.261 3214.83,395.723 3216.9,393.938C3218.02,393.17 3219.26,392.598 3220.56,392.246C3227.31,390.483 3233.81,387.895 3239.92,384.541C3242.99,382.894 3245.76,380.733 3248.1,378.15L3248.19,378.056ZM3232.5,360.671C3235.22,362.081 3240.02,364.994 3231.65,369.505C3218.59,376.741 3209.95,375.989 3203.18,380.312C3197.45,383.977 3200.83,391.871 3196.7,394.784C3191.62,398.355 3176.49,394.502 3156.94,400.986C3140.88,406.342 3130.63,421.66 3101.59,421.66C3072.56,421.66 3062.5,406.342 3046.15,400.986C3026.7,394.502 3011.57,398.355 3006.4,394.784C3002.26,391.965 3005.65,383.977 2999.91,380.312C2993.15,375.989 2984.5,376.741 2971.44,369.599C2963.08,365.088 2967.87,362.175 2970.6,360.859C3017.86,338.024 3025.38,302.69 3025.76,300.059C3026.13,296.864 3026.6,294.326 3023.13,291.131C3019.74,288.03 3004.71,278.727 3000.57,275.814C2993.62,271.021 2990.61,266.228 2992.87,260.308C2994.47,256.173 2998.22,254.67 3002.26,254.67C3003.53,254.658 3004.79,254.784 3006.02,255.046C3013.54,256.737 3020.87,260.496 3025.1,261.53C3025.62,261.657 3026.16,261.72 3026.7,261.718C3028.95,261.718 3029.8,260.59 3029.61,257.959C3029.14,249.689 3027.92,233.62 3029.24,218.584C3031.02,197.91 3037.69,187.667 3045.59,178.551C3049.35,174.229 3067.29,155.152 3101.5,155.152C3135.71,155.152 3153.56,174.041 3157.41,178.363C3165.31,187.479 3171.98,197.722 3173.76,218.396C3175.08,233.432 3173.95,249.501 3173.39,257.771C3173.2,260.496 3174.05,261.53 3176.3,261.53C3176.84,261.532 3177.38,261.469 3177.9,261.342C3182.22,260.308 3189.55,256.455 3197.07,254.858C3198.31,254.596 3199.57,254.47 3200.83,254.482C3204.87,254.482 3208.63,256.079 3210.23,260.12C3212.39,266.04 3209.38,270.833 3202.52,275.626C3198.29,278.539 3183.35,287.842 3179.97,290.943C3176.49,294.232 3176.96,296.676 3177.34,299.871C3177.71,302.502 3185.23,337.836 3232.5,360.671Z"/>
                </g>
            </g>
        </g>
    </g>
</svg>
