<?xml version="1.0" encoding="UTF-8" standalone="no"?>
<!DOCTYPE svg PUBLIC "-//W3C//DTD SVG 1.1//EN" "http://www.w3.org/Graphics/SVG/1.1/DTD/svg11.dtd">
<svg width="100%" height="100%" viewBox="0 0 512 512" version="1.1" xmlns="http://www.w3.org/2000/svg" xmlns:xlink="http://www.w3.org/1999/xlink" xml:space="preserve" xmlns:serif="http://www.serif.com/" style="fill-rule:evenodd;clip-rule:evenodd;stroke-linejoin:round;stroke-miterlimit:2;fill:#274C77;">
    <g transform="matrix(1,0,0,1,0,-1120)">
        <g id="Artboard1" transform="matrix(0.256,0,0,0.256,0,1120)">
            <rect x="0" y="0" width="2000" height="2000" style="fill:none;"/>
            <clipPath id="_clip1">
                <rect x="0" y="0" width="2000" height="2000"/>
            </clipPath>
            <g clip-path="url(#_clip1)">
                <g transform="matrix(4.75059,0,0,4.75059,-13734,-370.546)">
                    <path d="M3312,141.15L3312,435.85C3312,470.703 3283.7,499 3248.85,499L2954.15,499C2919.3,499 2891,470.703 2891,435.85L2891,141.15C2891,106.297 2919.3,78 2954.15,78L3248.85,78C3283.7,78 3312,106.297 3312,141.15ZM3221.85,261.666L3221.85,214.855C3185.52,212.249 3156.46,183.841 3152.67,147.846L3112.42,147.846C3112.42,147.846 3111.99,343.3 3111.99,344.252C3111.99,368.35 3090.71,387.335 3066.62,387.335C3042.52,387.335 3022.99,367.808 3022.99,343.711C3022.99,319.614 3042.52,300.088 3066.62,300.088C3068.42,300.088 3070.15,300.408 3071.9,300.619L3071.9,258.499C3070.15,258.388 3068.4,258.228 3066.62,258.228C3019.41,258.228 2981.14,296.499 2981.14,343.701C2981.14,390.903 3019.41,429.174 3066.62,429.174C3113.82,429.174 3152.09,390.903 3152.09,343.701L3152.09,228.056C3165.53,248.495 3188.64,262.017 3214.93,262.017C3217.26,262.017 3219.57,261.877 3221.85,261.666Z"/>
                </g>
            </g>
        </g>
    </g>
</svg>
