<?xml version="1.0" encoding="UTF-8" standalone="no"?>
<!DOCTYPE svg PUBLIC "-//W3C//DTD SVG 1.1//EN" "http://www.w3.org/Graphics/SVG/1.1/DTD/svg11.dtd">
<svg width="100%" height="100%" viewBox="0 0 512 512" version="1.1" xmlns="http://www.w3.org/2000/svg" xmlns:xlink="http://www.w3.org/1999/xlink" xml:space="preserve" xmlns:serif="http://www.serif.com/" style="fill-rule:evenodd;clip-rule:evenodd;stroke-linejoin:round;stroke-miterlimit:2;fill:#274C77;">
    <g transform="matrix(1,0,0,1,-1714,-1678)">
        <g id="Artboard1" transform="matrix(0.256,0,0,0.256,1714,1678)">
            <rect x="0" y="0" width="2000" height="2000" style="fill:none;"/>
            <clipPath id="_clip1">
                <rect x="0" y="0" width="2000" height="2000"/>
            </clipPath>
            <g clip-path="url(#_clip1)">
                <g transform="matrix(4.75059,0,0,4.75059,-13734,-370.546)">
                    <path d="M3312,141.15L3312,435.85C3312,470.703 3283.7,499 3248.85,499L2954.15,499C2919.3,499 2891,470.703 2891,435.85L2891,141.15C2891,106.297 2919.3,78 2954.15,78L3248.85,78C3283.7,78 3312,106.297 3312,141.15ZM3227.59,317.205L3227.59,156.937L2992.59,156.937L2975.41,202.721L2975.41,385.737L3038.45,385.737L3038.45,420.062L3072.8,420.062L3107.22,385.737L3158.91,385.737L3227.59,317.205ZM3015.53,179.805L3204.69,179.805L3204.69,305.651L3164.55,345.694L3101.5,345.694L3067.13,379.972L3067.13,345.694L3015.53,345.694L3015.53,179.805ZM3164.53,294.241L3164.53,225.589L3141.59,225.589L3141.59,294.241L3164.53,294.241ZM3101.5,294.241L3101.5,225.589L3078.58,225.589L3078.58,294.241L3101.5,294.241Z"/>
                </g>
            </g>
        </g>
    </g>
</svg>
