<?xml version="1.0" encoding="UTF-8" standalone="no"?>
<!DOCTYPE svg PUBLIC "-//W3C//DTD SVG 1.1//EN" "http://www.w3.org/Graphics/SVG/1.1/DTD/svg11.dtd">
<svg width="100%" height="100%" viewBox="0 0 512 512" version="1.1" xmlns="http://www.w3.org/2000/svg" xmlns:xlink="http://www.w3.org/1999/xlink" xml:space="preserve" xmlns:serif="http://www.serif.com/" style="fill-rule:evenodd;clip-rule:evenodd;stroke-linejoin:round;stroke-miterlimit:2;fill:#274C77;">
    <g transform="matrix(1,0,0,1,0,-2248)">
        <g id="Artboard1" transform="matrix(0.256,0,0,0.256,0,2248)">
            <rect x="0" y="0" width="2000" height="2000" style="fill:none;"/>
            <clipPath id="_clip1">
                <rect x="0" y="0" width="2000" height="2000"/>
            </clipPath>
            <g clip-path="url(#_clip1)">
                <g transform="matrix(4.75059,0,0,4.75059,-13734,-370.546)">
                    <path d="M3312,141.15L3312,435.85C3312,470.703 3283.7,499 3248.85,499L2954.15,499C2919.3,499 2891,470.703 2891,435.85L2891,141.15C2891,106.297 2919.3,78 2954.15,78L3248.85,78C3283.7,78 3312,106.297 3312,141.15ZM2962.04,206.085C2964.3,315.47 3019.09,381.252 3115.03,381.252L3120.48,381.252L3120.48,318.665C3137.4,320.827 3153.28,327.875 3166.25,339.058C3179.12,350.146 3188.52,364.9 3193.03,381.252L3242.93,381.252C3237.76,362.363 3228.74,344.79 3216.24,329.66C3203.84,314.437 3188.33,302.126 3170.76,293.387C3186.55,283.895 3200.08,271.209 3210.7,256.173C3221.32,241.138 3228.65,224.034 3232.41,206.085L3187.11,206.085C3177.24,240.762 3148.2,272.337 3120.48,275.344L3120.48,206.085L3075.19,206.085L3075.19,327.405C3047.09,320.451 3011.66,286.433 3010.06,206.085L2962.04,206.085Z"/>
                </g>
            </g>
        </g>
    </g>
</svg>
