<?xml version="1.0" encoding="UTF-8" standalone="no"?>
<!DOCTYPE svg PUBLIC "-//W3C//DTD SVG 1.1//EN" "http://www.w3.org/Graphics/SVG/1.1/DTD/svg11.dtd">
<svg width="100%" height="100%" viewBox="0 0 512 512" version="1.1" xmlns="http://www.w3.org/2000/svg" xmlns:xlink="http://www.w3.org/1999/xlink" xml:space="preserve" xmlns:serif="http://www.serif.com/" style="fill-rule:evenodd;clip-rule:evenodd;stroke-linejoin:round;stroke-miterlimit:2;fill:#274C77;">
    <g transform="matrix(1,0,0,1,-1714,-2248)">
        <g id="Artboard1" transform="matrix(0.256,0,0,0.256,1714,2248)">
            <rect x="0" y="0" width="2000" height="2000" style="fill:none;"/>
            <clipPath id="_clip1">
                <rect x="0" y="0" width="2000" height="2000"/>
            </clipPath>
            <g clip-path="url(#_clip1)">
                <g transform="matrix(4.75059,0,0,4.75059,-13734,-370.546)">
                    <path d="M3312,141.15L3312,435.85C3312,470.703 3283.7,499 3248.85,499L2954.15,499C2919.3,499 2891,470.703 2891,435.85L2891,141.15C2891,106.297 2919.3,78 2954.15,78L3248.85,78C3283.7,78 3312,106.297 3312,141.15ZM3101.51,425.814C3177.23,425.814 3238.83,364.215 3238.83,288.5C3238.83,212.785 3177.23,151.186 3101.51,151.186C3025.78,151.186 2964.17,212.785 2964.17,288.5C2964.17,364.215 3025.78,425.814 3101.51,425.814ZM3144.51,382.013C3148.07,372.506 3151.03,361.857 3153.34,350.398C3168.64,353.041 3182.33,356.861 3193.49,361.663C3178.79,380.103 3158.67,394.038 3135.57,401.043C3138.82,395.55 3141.82,389.194 3144.51,382.013ZM3069.26,347.753C3079.61,346.717 3090.43,346.171 3101.51,346.171C3112.58,346.171 3123.4,346.717 3133.74,347.752C3131.69,357.667 3129.11,366.873 3126.03,375.085C3118.86,394.203 3109.47,406.079 3101.51,406.079C3093.55,406.079 3084.14,394.203 3076.97,375.084C3073.89,366.873 3071.32,357.668 3069.26,347.753ZM3159.02,278.633C3158.71,267.443 3157.86,256.513 3156.51,246.042C3174.91,242.855 3191.38,238.078 3204.59,231.989C3212.33,246.044 3217.27,261.843 3218.67,278.633L3159.02,278.633ZM3049.66,350.399C3051.97,361.859 3054.93,372.508 3058.49,382.014C3061.19,389.193 3064.18,395.547 3067.43,401.039C3044.33,394.033 3024.22,380.099 3009.52,361.662C3020.67,356.86 3034.36,353.042 3049.66,350.399ZM3156.51,330.981C3157.86,320.503 3158.71,309.566 3159.02,298.367L3218.67,298.367C3217.27,315.165 3212.33,330.969 3204.58,345.029C3191.37,338.942 3174.9,334.167 3156.51,330.981ZM3133.74,229.271C3123.4,230.306 3112.58,230.852 3101.51,230.852C3090.43,230.852 3079.61,230.306 3069.26,229.27C3071.31,219.35 3073.89,210.139 3076.97,201.924C3084.14,182.8 3093.55,170.92 3101.51,170.92C3109.47,170.92 3118.86,182.8 3126.03,201.923C3129.11,210.14 3131.69,219.351 3133.74,229.271ZM3066.03,328.278C3064.81,318.695 3064.04,308.666 3063.73,298.367L3139.27,298.367C3138.96,308.665 3138.19,318.694 3136.97,328.276C3125.55,327.072 3113.65,326.437 3101.51,326.437C3089.37,326.437 3077.45,327.072 3066.03,328.278ZM3043.98,298.367C3044.29,309.566 3045.14,320.505 3046.49,330.982C3028.1,334.168 3011.63,338.943 2998.42,345.028C2990.68,330.968 2985.73,315.164 2984.33,298.367L3043.98,298.367ZM3046.49,246.04C3045.14,256.512 3044.29,267.442 3043.98,278.633L2984.33,278.633C2985.73,261.843 2990.67,246.045 2998.41,231.99C3011.62,238.077 3028.09,242.854 3046.49,246.04ZM3136.97,248.747C3138.19,258.323 3138.96,268.344 3139.27,278.633L3063.73,278.633C3064.04,268.343 3064.81,258.322 3066.03,248.746C3077.45,249.951 3089.37,250.587 3101.51,250.587C3113.65,250.587 3125.55,249.952 3136.97,248.747ZM3058.49,194.995C3054.93,204.506 3051.97,215.16 3049.66,226.624C3034.35,223.98 3020.66,220.159 3009.51,215.355C3024.21,196.909 3044.33,182.967 3067.44,175.959C3064.18,181.454 3061.19,187.812 3058.49,194.995ZM3153.34,226.625C3151.03,215.161 3148.08,204.507 3144.51,194.995C3141.82,187.81 3138.82,181.451 3135.57,175.955C3158.68,182.962 3178.8,196.905 3193.5,215.354C3182.34,220.159 3168.65,223.981 3153.34,226.625Z"/>
                </g>
            </g>
        </g>
    </g>
</svg>
