<?xml version="1.0" encoding="UTF-8" standalone="no"?>
<!DOCTYPE svg PUBLIC "-//W3C//DTD SVG 1.1//EN" "http://www.w3.org/Graphics/SVG/1.1/DTD/svg11.dtd">
<svg width="100%" height="100%" viewBox="0 0 512 512" version="1.1" xmlns="http://www.w3.org/2000/svg" xmlns:xlink="http://www.w3.org/1999/xlink" xml:space="preserve" xmlns:serif="http://www.serif.com/" style="fill-rule:evenodd;clip-rule:evenodd;stroke-linejoin:round;stroke-miterlimit:2;fill:#274C77;">
    <g transform="matrix(1,0,0,1,-582,-1678)">
        <g id="Artboard1" transform="matrix(0.256,0,0,0.256,582,1678)">
            <rect x="0" y="0" width="2000" height="2000" style="fill:none;"/>
            <clipPath id="_clip1">
                <rect x="0" y="0" width="2000" height="2000"/>
            </clipPath>
            <g clip-path="url(#_clip1)">
                <g transform="matrix(4.75059,0,0,4.75059,-13734,-370.546)">
                    <path d="M3312,141.15L3312,435.85C3312,470.703 3283.7,499 3248.85,499L2954.15,499C2919.3,499 2891,470.703 2891,435.85L2891,141.15C2891,106.297 2919.3,78 2954.15,78L3248.85,78C3283.7,78 3312,106.297 3312,141.15ZM3194.1,262.187C3124.13,226.642 3044.59,291.945 3080.98,351.889C3097.72,380.02 3136.81,397.816 3182.93,384.445C3192.14,388.057 3200.36,393.87 3209.24,398.175C3206.85,390.377 3204.45,382.699 3201.8,375.044C3249.52,341.125 3239.11,285.103 3194.1,262.187ZM3126.14,309.55C3120.26,309.55 3115.42,304.712 3115.42,298.834C3115.42,292.955 3120.26,288.117 3126.14,288.117C3132.02,288.117 3136.85,292.955 3136.85,298.834C3136.85,304.712 3132.02,309.55 3126.14,309.55ZM3178.76,309.55C3172.88,309.55 3168.05,304.712 3168.05,298.834C3168.05,292.955 3172.88,288.117 3178.76,288.117C3184.64,288.117 3189.48,292.955 3189.48,298.834C3189.47,304.708 3184.64,309.537 3178.76,309.55ZM3118.96,192.818L3119.25,192.818C3045.89,151.316 2954.51,209.156 2972.16,277.377C2976.95,297.614 2990.92,314.573 3007.88,325.888C3004.6,335.241 3001.49,344.57 2998.52,353.97C3009.19,348.373 3019.88,342.512 3030.58,336.795C3043.51,341.009 3057.07,342.944 3070.67,342.512C3053.92,294.193 3096.98,242.979 3160.82,247.548C3156.06,224.082 3139.63,204.228 3118.96,192.818ZM3098.39,246.017C3090.78,246.017 3084.52,239.754 3084.52,232.143C3084.52,224.532 3090.78,218.27 3098.39,218.27C3106,218.27 3112.26,224.532 3112.26,232.143C3112.26,239.754 3106,246.017 3098.39,246.017ZM3032.39,246.017C3024.78,246.017 3018.52,239.754 3018.52,232.143C3018.52,224.532 3024.78,218.27 3032.39,218.27C3040.01,218.27 3046.27,224.532 3046.27,232.143C3046.27,239.754 3040.01,246.017 3032.39,246.017Z"/>
                </g>
            </g>
        </g>
    </g>
</svg>
