<?xml version="1.0" encoding="UTF-8" standalone="no"?>
<!DOCTYPE svg PUBLIC "-//W3C//DTD SVG 1.1//EN" "http://www.w3.org/Graphics/SVG/1.1/DTD/svg11.dtd">
<svg width="100%" height="100%" viewBox="0 0 512 512" version="1.1" xmlns="http://www.w3.org/2000/svg" xmlns:xlink="http://www.w3.org/1999/xlink" xml:space="preserve" xmlns:serif="http://www.serif.com/" style="fill-rule:evenodd;clip-rule:evenodd;stroke-linejoin:round;stroke-miterlimit:2;fill:#274C77;">
    <g transform="matrix(1,0,0,1,-1714,0)">
        <g id="Artboard1" transform="matrix(0.256,0,0,0.256,1714,0)">
            <rect x="0" y="0" width="2000" height="2000" style="fill:none;"/>
            <clipPath id="_clip1">
                <rect x="0" y="0" width="2000" height="2000"/>
            </clipPath>
            <g clip-path="url(#_clip1)">
                <g transform="matrix(4.75059,0,0,4.75059,-13734,-370.546)">
                    <path d="M3312,141.15L3312,435.85C3312,470.703 3283.7,499 3248.85,499L2954.15,499C2919.3,499 2891,470.703 2891,435.85L2891,141.15C2891,106.297 2919.3,78 2954.15,78L3248.85,78C3283.7,78 3312,106.297 3312,141.15ZM3194.31,195.689C3169.81,170.938 3136.38,156.997 3101.55,156.997C3029.94,156.997 2971.02,215.922 2971.02,287.531C2971.02,308.094 2975.88,328.369 2985.2,346.698L2971.35,413.939C2971.06,415.291 2971.35,416.705 2972.14,417.838C2973.31,419.576 2975.46,420.408 2977.5,419.919L3043.4,404.299C3061.45,413.27 3081.33,417.939 3101.49,417.939C3173.08,417.939 3232,359.025 3232,287.429C3232,253.094 3218.45,220.109 3194.31,195.689ZM3173.76,359.687C3142.77,390.593 3095.21,398.323 3056.03,378.824L3046.84,374.279L3006.44,383.847L3006.56,383.345L3014.93,342.68L3010.43,333.805C2990.41,294.469 2998.03,246.398 3029.24,215.184C3068.88,175.55 3134.12,175.55 3173.76,215.184C3173.93,215.371 3174.1,215.547 3174.29,215.71C3213.43,255.436 3213.2,320.248 3173.76,359.687ZM3170.18,329.858C3171.09,328.356 3171.58,326.629 3171.58,324.869C3171.58,320.677 3168.83,316.951 3164.82,315.721L3139.53,308.545C3136.22,307.607 3132.65,308.522 3130.2,310.937L3123.96,317.228C3121.37,319.907 3117.39,320.743 3113.94,319.333C3107.62,316.798 3097.65,309.359 3088.66,301.226C3080.64,294.026 3073.42,286.251 3070.4,280.965C3068.55,277.68 3068.88,273.576 3071.24,270.631L3076.62,263.647C3078.75,260.924 3079.2,257.235 3077.8,254.078L3067.15,230.158C3065.65,226.748 3062.27,224.535 3058.54,224.535C3056.3,224.535 3054.14,225.333 3052.44,226.785C3045.38,232.718 3037.01,241.807 3036.01,251.854C3034.19,269.555 3041.7,291.873 3070.62,318.688L3071.03,319.046C3103.92,349.712 3130.35,353.731 3147.57,349.569C3157.4,347.201 3165.22,337.657 3170.18,329.858Z"/>
                </g>
            </g>
        </g>
    </g>
</svg>
