<?xml version="1.0" encoding="UTF-8" standalone="no"?>
<!DOCTYPE svg PUBLIC "-//W3C//DTD SVG 1.1//EN" "http://www.w3.org/Graphics/SVG/1.1/DTD/svg11.dtd">
<svg width="100%" height="100%" viewBox="0 0 512 512" version="1.1" xmlns="http://www.w3.org/2000/svg" xmlns:xlink="http://www.w3.org/1999/xlink" xml:space="preserve" xmlns:serif="http://www.serif.com/" style="fill-rule:evenodd;clip-rule:evenodd;stroke-linejoin:round;stroke-miterlimit:2;fill:#274C77;">
    <g transform="matrix(1,0,0,1,-1148,-1678)">
        <g id="Artboard1" transform="matrix(0.256,0,0,0.256,1148,1678)">
            <rect x="0" y="0" width="2000" height="2000" style="fill:none;"/>
            <clipPath id="_clip1">
                <rect x="0" y="0" width="2000" height="2000"/>
            </clipPath>
            <g clip-path="url(#_clip1)">
                <g transform="matrix(4.75059,0,0,4.75059,-13734,-370.546)">
                    <path d="M3312,141.15L3312,435.85C3312,470.703 3283.7,499 3248.85,499L2954.15,499C2919.3,499 2891,470.703 2891,435.85L2891,141.15C2891,106.297 2919.3,78 2954.15,78L3248.85,78C3283.7,78 3312,106.297 3312,141.15ZM3230.34,156.938L3185.7,156.938L3112.21,241.044L3048.59,156.938L2956.5,156.938L3066.54,300.81L2962.23,420.062L3006.87,420.062L3087.4,328.063L3157.7,420.062L3247.53,420.062L3132.79,268.39L3230.34,156.938ZM3194.82,393.374L3170.01,393.374L3008.56,182.216L3035.16,182.216L3194.82,393.374Z"/>
                </g>
            </g>
        </g>
    </g>
</svg>
