<?xml version="1.0" encoding="UTF-8" standalone="no"?>
<!DOCTYPE svg PUBLIC "-//W3C//DTD SVG 1.1//EN" "http://www.w3.org/Graphics/SVG/1.1/DTD/svg11.dtd">
<svg width="100%" height="100%" viewBox="0 0 512 512" version="1.1" xmlns="http://www.w3.org/2000/svg" xmlns:xlink="http://www.w3.org/1999/xlink" xml:space="preserve" xmlns:serif="http://www.serif.com/" style="fill-rule:evenodd;clip-rule:evenodd;stroke-linejoin:round;stroke-miterlimit:2;fill:#274C77;">
    <g transform="matrix(1,0,0,1,-1148,0)">
        <g id="Artboard1" transform="matrix(0.256,0,0,0.256,1148,0)">
            <rect x="0" y="0" width="2000" height="2000" style="fill:none;"/>
            <clipPath id="_clip1">
                <rect x="0" y="0" width="2000" height="2000"/>
            </clipPath>
            <g clip-path="url(#_clip1)">
                <g transform="matrix(4.75059,0,0,4.75059,-13734,-370.546)">
                    <path d="M3312,141.15L3312,435.85C3312,470.703 3283.7,499 3248.85,499L2954.15,499C2919.3,499 2891,470.703 2891,435.85L2891,141.15C2891,106.297 2919.3,78 2954.15,78L3248.85,78C3283.7,78 3312,106.297 3312,141.15ZM3231.81,299.025L3231.81,278.309C3231.81,256.257 3229.81,233.87 3229.81,233.87C3229.81,233.87 3227.8,214.825 3219.78,206.472C3209.76,195.78 3198.4,195.446 3193.39,194.777C3156.63,192.104 3101.5,191.77 3101.5,191.77C3101.5,191.77 3046.37,192.104 3009.28,194.777C3004.27,195.446 2993.24,195.78 2983.22,206.806C2975.53,215.159 2973.2,233.87 2973.2,233.87C2973.2,233.87 2971.19,256.257 2971.19,278.309L2971.19,299.025C2971.19,321.077 2973.2,343.464 2973.2,343.464C2973.2,343.464 2975.2,362.175 2983.22,370.528C2993.24,381.554 3006.61,381.22 3012.29,382.223C3033.34,384.227 3101.83,385.23 3101.83,385.23C3101.83,385.23 3156.97,384.896 3193.72,382.223C3198.73,381.554 3209.76,381.554 3219.78,370.528C3227.47,362.175 3229.81,343.464 3229.81,343.464C3229.81,343.464 3231.81,321.077 3231.81,299.025ZM3071.57,250.676L3141.3,288.829L3071.57,326.324L3071.57,250.676Z"/>
                </g>
            </g>
        </g>
    </g>
</svg>
